<?xml version="1.0" encoding="UTF-8"?>
<!DOCTYPE svg PUBLIC "-//W3C//DTD SVG 1.1//EN" "http://www.w3.org/Graphics/SVG/1.1/DTD/svg11.dtd">
<!-- Creator: CorelDRAW X7 -->
<svg xmlns="http://www.w3.org/2000/svg" xml:space="preserve" width="297mm" height="210mm" version="1.1" style="shape-rendering:geometricPrecision; text-rendering:geometricPrecision; image-rendering:optimizeQuality; fill-rule:evenodd; clip-rule:evenodd"
viewBox="0 0 29700 21000"
 xmlns:xlink="http://www.w3.org/1999/xlink">
 <defs>
  <style type="text/css">
   <![CDATA[
    .fil0 {fill:black}
    .fil1 {fill:black;fill-rule:nonzero}
   ]]>
  </style>
 </defs>
 <g id="Camada_x0020_1">
  <metadata id="CorelCorpID_0Corel-Layer"/>
  <g id="_2113006968112">
   <path class="fil0" d="M8824 20331c2146,0 3392,-1033 4372,-2226l0 1908 4954 0c-1550,-313 -3034,-934 -4346,-1878l1882 -3048c828,548 1697,961 2545,1236l0 -2026c-2168,-717 -3738,-1780 -3738,-4191l0 -53c0,-2388 1497,-3946 3738,-4509l0 -4875 -5035 0 0 6757c-954,-1086 -2226,-2067 -4399,-2067 -3391,0 -6306,2836 -6306,7499l0 53c0,4585 2941,7420 6333,7420zm1537 -4213c-1617,0 -2941,-1352 -2941,-3260l0 -53c0,-1907 1324,-3232 2941,-3232 1616,0 2915,1351 2915,3232l0 53c0,1908 -1299,3260 -2915,3260z"/>
   <path class="fil1" d="M21353 20331c3498,0 5856,-1643 5856,-4796l0 -53c0,-2783 -2252,-3763 -5088,-4558 -1510,-451 -2331,-716 -2331,-1272l0 -53c0,-397 397,-689 1166,-689 1139,0 2755,504 4239,1325l1723 -3180c-1643,-1060 -3816,-1669 -5909,-1669 -3313,0 -5751,1696 -5751,4743l0 53c0,2888 2253,3842 5088,4584 1510,424 2305,663 2305,1219l0 53c0,504 -397,769 -1272,769 -1483,0 -3285,-557 -4928,-1643l-1882 3047c1988,1431 4373,2120 6784,2120z"/>
  </g>
 </g>
</svg>
